{"title":"WWE Vengeance 2011 [HD] !Taimoor!","uid":6769082,"size":1392967637,"categoryP":"video","categoryS":"tv_shows","magnet":"?xt=urn:btih:ac0b82ef9bfa07bc12851b64cec115d5b9fed31d&amp;dn=WWE+Vengeance+2011+%5BHD%5D+%21Taimoor%21&amp;tr=udp%3A%2F%2Ftracker.openbittorrent.com%3A80&amp;tr=udp%3A%2F%2Fopen.demonii.com%3A1337&amp;tr=udp%3A%2F%2Ftracker.coppersurfer.tk%3A6969&amp;tr=udp%3A%2F%2Fexodus.desync.com%3A6969","seeders":0,"leechers":0,"uploader":"sirftaimoor","files":8,"time":1319510695,"description":"[img]http://img831.imageshack.us/img831/1985/covervhe.jpg[/img]\n\n\n                                                               \nÃ‚Â¦Ã‚Â¦Ã‚Â¦Ã‚Â¦Ã‚Â¦Ã‚Â¦Ã‚Â¦Ã‚Â¦Ã‚Â¦Ã‚Â¦Ã‚Â¦Ã‚Â¦Ã‚Â¦Ã‚Â¦Ã‚Â¦Ã‚Â¦Ã‚Â¦Ã‚Â¦Ã‚Â¦Ã‚Â¦Ã‚Â¦Ã‚Â¦Ã‚Â¦Ã‚Â¦Ã‚Â¦Ã‚Â¦Ã‚Â¦Ã‚Â¦Ã‚Â¦Ã‚Â¦Ã‚Â¦Ã‚Â¦Ã‚Â¦Ã‚Â¦Ã‚Â¦Ã‚Â¦Ã‚Â¦Ã‚Â¦Ã‚Â¦Ã‚Â¦Ã‚Â¦Ã‚Â¦Ã‚Â¦Ã‚Â¦Ã‚Â¦Ã‚Â¦Ã‚Â¦Ã‚Â¦Ã‚Â¦Ã‚Â¦Ã‚Â¦Ã‚Â¦Ã‚Â¦Ã‚Â¦Ã‚Â¦Ã‚Â¦Ã‚Â¦Ã‚Â¦Ã‚Â¦Ã‚Â¦Ã‚Â¦Ã‚Â¦Ã‚Â¦\nÃ‚Â¦Ã‚Â¦Ã‚Â¦Ã‚Â¦Ã‚Â¦Ã‚Â¦Ã‚Â¦Ã‚Â¦Ã‚Â¦Ã‚Â¦Ã‚Â¦Ã‚Â¦Ã‚Â¦Ã‚Â¦Ã‚Â¦Ã‚Â¦Ã‚Â¦Ã‚Â¦Ã‚Â¦Ã‚Â¦Ã‚Â¦Ã‚Â¦Ã‚Â¦Ã‚Â¦Ã‚Â¦Ã‚Â¦Ã‚Â¦Ã‚Â¦Ã‚Â¦Ã‚Â¦Ã‚Â¦Ã‚Â¦Ã‚Â¦Ã‚Â¦Ã‚Â¦Ã‚Â¦Ã‚Â¦Ã‚Â¦Ã‚Â¦Ã‚Â¦Ã‚Â¦Ã‚Â¦Ã‚Â¦Ã‚Â¦Ã‚Â¦Ã‚Â¦Ã‚Â¦Ã‚Â¦Ã‚Â¦Ã‚Â¦Ã‚Â¦Ã‚Â¦Ã‚Â¦Ã‚Â¦Ã‚Â¦Ã‚Â¦Ã‚Â¦Ã‚Â¦Ã‚Â¦Ã‚Â¦Ã‚Â¦Ã‚Â¦Ã‚Â¦\nÃ‚Â¦Ã‚Â¦-----------------------------------------------------------Ã‚Â¦Ã‚Â¦\nÃ‚Â¦Ã‚Â¦                                                           Ã‚Â¦Ã‚Â¦\nÃ‚Â¦Ã‚Â¦                         ########                          Ã‚Â¦Ã‚Â¦\nÃ‚Â¦Ã‚Â¦                       ############                        Ã‚Â¦Ã‚Â¦\nÃ‚Â¦Ã‚Â¦                      ##############                       Ã‚Â¦Ã‚Â¦\nÃ‚Â¦Ã‚Â¦                     ################                      Ã‚Â¦Ã‚Â¦\nÃ‚Â¦Ã‚Â¦                     ################                      Ã‚Â¦Ã‚Â¦\nÃ‚Â¦Ã‚Â¦#                   ##################                    #Ã‚Â¦Ã‚Â¦\nÃ‚Â¦Ã‚Â¦##                  ##################                   ##Ã‚Â¦Ã‚Â¦\nÃ‚Â¦Ã‚Â¦##                  ##################                  ###Ã‚Â¦Ã‚Â¦\nÃ‚Â¦Ã‚Â¦###                 ##################                 ####Ã‚Â¦Ã‚Â¦\nÃ‚Â¦Ã‚Â¦####                #####  ####  #####                #### Ã‚Â¦Ã‚Â¦\nÃ‚Â¦Ã‚Â¦ ####               ####   ###    ####               ##### Ã‚Â¦Ã‚Â¦\nÃ‚Â¦Ã‚Â¦ #####              ###    ###    ####              #####  Ã‚Â¦Ã‚Â¦\nÃ‚Â¦Ã‚Â¦  #####             ###    ####   ###              ######  Ã‚Â¦Ã‚Â¦\nÃ‚Â¦Ã‚Â¦  ######            #################             ######   Ã‚Â¦Ã‚Â¦\nÃ‚Â¦Ã‚Â¦   #####            ######## ########            ######    Ã‚Â¦Ã‚Â¦\nÃ‚Â¦Ã‚Â¦    #####            #######  #######           #######    Ã‚Â¦Ã‚Â¦\nÃ‚Â¦Ã‚Â¦    #######           ##############           #######     Ã‚Â¦Ã‚Â¦\nÃ‚Â¦Ã‚Â¦     #######            #########             #######      Ã‚Â¦Ã‚Â¦\nÃ‚Â¦Ã‚Â¦      #######          ############          #######       Ã‚Â¦Ã‚Â¦\nÃ‚Â¦Ã‚Â¦       #######         ############         #######        Ã‚Â¦Ã‚Â¦\nÃ‚Â¦Ã‚Â¦        #######        ############        #######         Ã‚Â¦Ã‚Â¦\nÃ‚Â¦Ã‚Â¦         #######       ##       ###      ########          Ã‚Â¦Ã‚Â¦\nÃ‚Â¦Ã‚Â¦          ########     ###########      ########           Ã‚Â¦Ã‚Â¦\nÃ‚Â¦Ã‚Â¦           ########    ###########     ########            Ã‚Â¦Ã‚Â¦\nÃ‚Â¦Ã‚Â¦            #########   #########    #########             Ã‚Â¦Ã‚Â¦\nÃ‚Â¦Ã‚Â¦             ##########  #######   #########               Ã‚Â¦Ã‚Â¦\nÃ‚Â¦Ã‚Â¦               #########          #########                Ã‚Â¦Ã‚Â¦\nÃ‚Â¦Ã‚Â¦                ##########      ##########                 Ã‚Â¦Ã‚Â¦\nÃ‚Â¦Ã‚Â¦                  ##########  ##########                   Ã‚Â¦Ã‚Â¦\nÃ‚Â¦Ã‚Â¦           ###     ###################     ###             Ã‚Â¦Ã‚Â¦\nÃ‚Â¦Ã‚Â¦          ####      ################       ####            Ã‚Â¦Ã‚Â¦\nÃ‚Â¦Ã‚Â¦            ###       ##############      ####             Ã‚Â¦Ã‚Â¦\nÃ‚Â¦Ã‚Â¦             ###   ####################  ####              Ã‚Â¦Ã‚Â¦\nÃ‚Â¦Ã‚Â¦             ############## ################               Ã‚Â¦Ã‚Â¦\nÃ‚Â¦Ã‚Â¦     ###################### #######################        Ã‚Â¦Ã‚Â¦\nÃ‚Â¦Ã‚Â¦     ###################        ######### #########        Ã‚Â¦Ã‚Â¦\nÃ‚Â¦Ã‚Â¦     ######### ## ##                ##### #########        Ã‚Â¦Ã‚Â¦\nÃ‚Â¦Ã‚Â¦      ####      ###                    ###     ####        Ã‚Â¦Ã‚Â¦\nÃ‚Â¦Ã‚Â¦        ##      ####  #            #  ###       ##         Ã‚Â¦Ã‚Â¦\nÃ‚Â¦Ã‚Â¦                 ######            ######                  Ã‚Â¦Ã‚Â¦\nÃ‚Â¦Ã‚Â¦                  #####            #####                   Ã‚Â¦Ã‚Â¦\nÃ‚Â¦Ã‚Â¦                                                           Ã‚Â¦Ã‚Â¦\nÃ‚Â¦Ã‚Â¦Ã‚Â¦Ã‚Â¦Ã‚Â¦Ã‚Â¦Ã‚Â¦Ã‚Â¦Ã‚Â¦Ã‚Â¦Ã‚Â¦Ã‚Â¦Ã‚Â¦Ã‚Â¦Ã‚Â¦Ã‚Â¦Ã‚Â¦Ã‚Â¦Ã‚Â¦Ã‚Â¦Ã‚Â¦Ã‚Â¦Ã‚Â¦Ã‚Â¦Ã‚Â¦Ã‚Â¦Ã‚Â¦Ã‚Â¦Ã‚Â¦Ã‚Â¦Ã‚Â¦Ã‚Â¦Ã‚Â¦Ã‚Â¦Ã‚Â¦Ã‚Â¦Ã‚Â¦Ã‚Â¦Ã‚Â¦Ã‚Â¦Ã‚Â¦Ã‚Â¦Ã‚Â¦Ã‚Â¦Ã‚Â¦Ã‚Â¦Ã‚Â¦Ã‚Â¦Ã‚Â¦Ã‚Â¦Ã‚Â¦Ã‚Â¦Ã‚Â¦Ã‚Â¦Ã‚Â¦Ã‚Â¦Ã‚Â¦Ã‚Â¦Ã‚Â¦Ã‚Â¦Ã‚Â¦Ã‚Â¦Ã‚Â¦\nÃ‚Â¦Ã‚Â¦Ã‚Â¦Ã‚Â¦Ã‚Â¦Ã‚Â¦Ã‚Â¦Ã‚Â¦Ã‚Â¦Ã‚Â¦Ã‚Â¦Ã‚Â¦Ã‚Â¦Ã‚Â¦Ã‚Â¦Ã‚Â¦+Ã‚Â¦Ã‚Â¦Ã‚Â¦Ã‚Â¦Ã‚Â¦Ã‚Â¦Ã‚Â¦Ã‚Â¦Ã‚Â¦Ã‚Â¦Ã‚Â¦Ã‚Â¦Ã‚Â¦Ã‚Â¦Ã‚Â¦Ã‚Â¦Ã‚Â¦Ã‚Â¦Ã‚Â¦Ã‚Â¦Ã‚Â¦Ã‚Â¦Ã‚Â¦Ã‚Â¦Ã‚Â¦Ã‚Â¦Ã‚Â¦Ã‚Â¦Ã‚Â¦Ã‚Â¦+Ã‚Â¦Ã‚Â¦Ã‚Â¦Ã‚Â¦Ã‚Â¦Ã‚Â¦Ã‚Â¦Ã‚Â¦Ã‚Â¦Ã‚Â¦Ã‚Â¦Ã‚Â¦Ã‚Â¦Ã‚Â¦Ã‚Â¦\nÃ‚Â¦Ã‚Â¦Ã‚Â¦Ã‚Â¦Ã‚Â¦Ã‚Â¦Ã‚Â¦Ã‚Â¦Ã‚Â¦Ã‚Â¦Ã‚Â¦Ã‚Â¦Ã‚Â¦Ã‚Â¦Ã‚Â¦Ã‚Â¦Ã‚Â¦  RANA TAIMOOR ALI'S Release  Ã‚Â¦Ã‚Â¦Ã‚Â¦Ã‚Â¦Ã‚Â¦Ã‚Â¦Ã‚Â¦Ã‚Â¦Ã‚Â¦Ã‚Â¦Ã‚Â¦Ã‚Â¦Ã‚Â¦Ã‚Â¦Ã‚Â¦Ã‚Â¦\nÃ‚Â¦Ã‚Â¦Ã‚Â¦Ã‚Â¦Ã‚Â¦Ã‚Â¦Ã‚Â¦Ã‚Â¦Ã‚Â¦Ã‚Â¦Ã‚Â¦Ã‚Â¦Ã‚Â¦Ã‚Â¦Ã‚Â¦Ã‚Â¦+Ã‚Â¦Ã‚Â¦Ã‚Â¦Ã‚Â¦Ã‚Â¦Ã‚Â¦Ã‚Â¦Ã‚Â¦Ã‚Â¦Ã‚Â¦Ã‚Â¦Ã‚Â¦Ã‚Â¦Ã‚Â¦Ã‚Â¦Ã‚Â¦Ã‚Â¦Ã‚Â¦Ã‚Â¦Ã‚Â¦Ã‚Â¦Ã‚Â¦Ã‚Â¦Ã‚Â¦Ã‚Â¦Ã‚Â¦Ã‚Â¦Ã‚Â¦Ã‚Â¦Ã‚Â¦+Ã‚Â¦Ã‚Â¦Ã‚Â¦Ã‚Â¦Ã‚Â¦Ã‚Â¦Ã‚Â¦Ã‚Â¦Ã‚Â¦Ã‚Â¦Ã‚Â¦Ã‚Â¦Ã‚Â¦Ã‚Â¦Ã‚Â¦\nÃ‚Â¦Ã‚Â¦Ã‚Â¦Ã‚Â¦Ã‚Â¦Ã‚Â¦Ã‚Â¦Ã‚Â¦Ã‚Â¦Ã‚Â¦Ã‚Â¦Ã‚Â¦Ã‚Â¦Ã‚Â¦Ã‚Â¦Ã‚Â¦Ã‚Â¦Ã‚Â¦Ã‚Â¦Ã‚Â¦Ã‚Â¦Ã‚Â¦Ã‚Â¦Ã‚Â¦Ã‚Â¦Ã‚Â¦Ã‚Â¦PresentsÃ‚Â¦Ã‚Â¦Ã‚Â¦Ã‚Â¦Ã‚Â¦Ã‚Â¦Ã‚Â¦Ã‚Â¦Ã‚Â¦Ã‚Â¦Ã‚Â¦Ã‚Â¦Ã‚Â¦Ã‚Â¦Ã‚Â¦Ã‚Â¦Ã‚Â¦Ã‚Â¦Ã‚Â¦Ã‚Â¦Ã‚Â¦Ã‚Â¦Ã‚Â¦Ã‚Â¦Ã‚Â¦Ã‚Â¦Ã‚Â¦Ã‚Â¦\nÃ‚Â¦Ã‚Â¦Ã‚Â¦Ã‚Â¦Ã‚Â¦Ã‚Â¦Ã‚Â¦Ã‚Â¦Ã‚Â¦Ã‚Â¦Ã‚Â¦Ã‚Â¦Ã‚Â¦Ã‚Â¦Ã‚Â¦Ã‚Â¦Ã‚Â¦Ã‚Â¦Ã‚Â¦Ã‚Â¦Ã‚Â¦Ã‚Â¦ Ã‚Â¦ Ripper's Note  Ã‚Â¦Ã‚Â¦Ã‚Â¦Ã‚Â¦Ã‚Â¦Ã‚Â¦Ã‚Â¦Ã‚Â¦Ã‚Â¦Ã‚Â¦Ã‚Â¦Ã‚Â¦Ã‚Â¦Ã‚Â¦Ã‚Â¦Ã‚Â¦Ã‚Â¦Ã‚Â¦Ã‚Â¦Ã‚Â¦Ã‚Â¦Ã‚Â¦Ã‚Â¦\n\n\n\n\nRelease : WWE Vengeance 2011 !Taimoor!\n\nRelease Date: Sunday, October 23rd 8pm EDT\n  \nRelease Length: 2h 57mn\n\nTotal Size : 1.29 GB\n\n\n\n\n\nMatches\nWWE Champion Alberto Del Rio vs. John Cena (Last Man Standing Match)\n\nWorld Heavyweight Champion Mark Henry vs. Big Show\n\nRandy Orton vs. Cody Rhodes\n\nTriple H &amp; CM Punk vs. The Miz &amp; R-Truth\n\nSheamus vs. Christian\n\nDisk 1\n\nVideo\nFormat                           : AVC\nFormat/Info                      : Advanced Video Codec\nFormat profile                   : &lt;a class=&quot;__cf_email__&quot; href=&quot;/cdn-cgi/l/email-protection&quot; data-cfemail=&quot;2e664749466e621a001f&quot;&gt;[email&amp;#160;protected]&lt;/a&gt;&lt;script cf-hash='f9e31' type=&quot;text/javascript&quot;&gt;\n/* &lt;![CDATA[ */!function(){try{var t=&quot;currentScript&quot;in document?document.currentScript:function(){for(var t=document.getElementsByTagName(&quot;script&quot;),e=t.length;e--;)if(t[e].getAttribute(&quot;cf-hash&quot;))return t[e]}();if(t&amp;&amp;t.previousSibling){var e,r,n,i,c=t.previousSibling,a=c.getAttribute(&quot;data-cfemail&quot;);if(a){for(e=&quot;&quot;,r=parseInt(a.substr(0,2),16),n=2;a.length-n;n+=2)i=parseInt(a.substr(n,2),16)^r,e+=String.fromCharCode(i);e=document.createTextNode(e),c.parentNode.replaceChild(e,c)}}}catch(u){}}();/* ]]&gt; */&lt;/script&gt;\nFormat settings, CABAC           : Yes\nFormat settings, ReFrames        : 4 frames\nCodec ID                         : 7\nDuration                         : 1h 28mn\nBit rate                         : 1 020 Kbps\nWidth                            : 704 pixels\nHeight                           : 400 pixels\nDisplay aspect ratio             : 16:9\nFrame rate mode                  : Constant\nFrame rate                       : 58.000 fps\nColor space                      : YUV\nChroma subsampling               : 4:2:0\nBit depth                        : 8 bits\nScan type                        : Progressive\nBits/(Pixel*Frame)               : 0.062\nStream size                      : 648 MiB (92%)\nWriting library                  : x264 core 115\nTitle                            : !Taimoor!\n\n\nAudio\nFormat                           : AAC\nFormat/Info                      : Advanced Audio Codec\nFormat profile                   : LC\nCodec ID                         : 10\nDuration                         : 1h 28mn\nBit rate                         : 80.7 Kbps\nChannel(s)                       : 2 channels\nChannel positions                : Front: L R\nSampling rate                    : 44.1 KHz\nCompression mode                 : Lossy\nStream size                      : 53.4 MiB (8%)\nTitle                            : !Taimoor!\n\n\n\nDisk 2\n\n\nVideo\nFormat                           : AVC\nFormat/Info                      : Advanced Video Codec\nFormat profile                   : &lt;a class=&quot;__cf_email__&quot; href=&quot;/cdn-cgi/l/email-protection&quot; data-cfemail=&quot;abe3c2ccc3ebe79f859a&quot;&gt;[email&amp;#160;protected]&lt;/a&gt;&lt;script cf-hash='f9e31' type=&quot;text/javascript&quot;&gt;\n/* &lt;![CDATA[ */!function(){try{var t=&quot;currentScript&quot;in document?document.currentScript:function(){for(var t=document.getElementsByTagName(&quot;script&quot;),e=t.length;e--;)if(t[e].getAttribute(&quot;cf-hash&quot;))return t[e]}();if(t&amp;&amp;t.previousSibling){var e,r,n,i,c=t.previousSibling,a=c.getAttribute(&quot;data-cfemail&quot;);if(a){for(e=&quot;&quot;,r=parseInt(a.substr(0,2),16),n=2;a.length-n;n+=2)i=parseInt(a.substr(n,2),16)^r,e+=String.fromCharCode(i);e=document.createTextNode(e),c.parentNode.replaceChild(e,c)}}}catch(u){}}();/* ]]&gt; */&lt;/script&gt;\nFormat settings, CABAC           : Yes\nFormat settings, ReFrames        : 4 frames\nCodec ID                         : 7\nDuration                         : 1h 28mn\nBit rate                         : 895 Kbps\nWidth                            : 704 pixels\nHeight                           : 400 pixels\nDisplay aspect ratio             : 16:9\nFrame rate mode                  : Constant\nFrame rate                       : 58.000 fps\nColor space                      : YUV\nChroma subsampling               : 4:2:0\nBit depth                        : 8 bits\nScan type                        : Progressive\nBits/(Pixel*Frame)               : 0.055\nStream size                      : 569 MiB (91%)\nWriting library                  : x264 core 115\nTitle                            : !Taimoor!\n\nAudio\nFormat                           : AAC\nFormat/Info                      : Advanced Audio Codec\nFormat profile                   : LC\nCodec ID                         : 10\nDuration                         : 1h 28mn\nBit rate                         : 80.6 Kbps\nChannel(s)                       : 2 channels\nChannel positions                : Front: L R\nSampling rate                    : 44.1 KHz\nCompression mode                 : Lossy\nStream size                      : 53.4 MiB (9%)\nTitle                            : !Taimoor!\n\n\nSCREENSHOT\n\n \n[img]http://img12.imageshack.us/img12/12/68364313.jpg[/img]\n[img]http://img31.imageshack.us/img31/4609/96373241.jpg[/img]\n[img]http://img593.imageshack.us/img593/1333/90341031.jpg[/img]\n[img]http://img508.imageshack.us/img508/7168/47930303.jpg[/img]","torrent":{"xt":"urn:btih:ac0b82ef9bfa07bc12851b64cec115d5b9fed31d","amp;dn":"WWE+Vengeance+2011+%5BHD%5D+%21Taimoor%21","amp;tr":["udp%3A%2F%2Ftracker.openbittorrent.com%3A80","udp%3A%2F%2Fopen.demonii.com%3A1337","udp%3A%2F%2Ftracker.coppersurfer.tk%3A6969","udp%3A%2F%2Fexodus.desync.com%3A6969"],"infoHash":"ac0b82ef9bfa07bc12851b64cec115d5b9fed31d","infoHashBuffer":{"type":"Buffer","data":[172,11,130,239,155,250,7,188,18,133,27,100,206,193,21,213,185,254,211,29]},"announce":[],"urlList":[]}}